<svg id="_x33_0" enable-background="new 0 0 64 64" height="512" viewBox="0 0 64 64" width="512" xmlns="http://www.w3.org/2000/svg" xmlns:xlink="http://www.w3.org/1999/xlink"><linearGradient id="SVGID_1_" gradientUnits="userSpaceOnUse" x1="32" x2="32" y1="63.414" y2="1"><stop offset="0" stop-color="#9f2fff"/><stop offset="1" stop-color="#0bb1d3"/></linearGradient><path d="m32 19c-2.757 0-5 2.243-5 5s2.243 5 5 5 5-2.243 5-5-2.243-5-5-5zm0 8c-1.654 0-3-1.346-3-3s1.346-3 3-3 3 1.346 3 3-1.346 3-3 3zm-3-10c0-2.206-1.794-4-4-4s-4 1.794-4 4 1.794 4 4 4 4-1.794 4-4zm-4 2c-1.103 0-2-.897-2-2s.897-2 2-2 2 .897 2 2-.897 2-2 2zm13-10c-2.757 0-5 2.243-5 5s2.243 5 5 5 5-2.243 5-5-2.243-5-5-5zm0 8c-1.654 0-3-1.346-3-3s1.346-3 3-3 3 1.346 3 3-1.346 3-3 3zm-10-6c1.654 0 3-1.346 3-3s-1.346-3-3-3-3 1.346-3 3 1.346 3 3 3zm0-4c.551 0 1 .449 1 1s-.449 1-1 1-1-.449-1-1 .449-1 1-1zm-21 14.764c0 1.308.309 2.618.895 3.789l-1.789.895c-.724-1.448-1.106-3.067-1.106-4.684v-.764h2zm47-8.764c-2.843 0-5.378 1.329-7.029 3.394-.302-8.54-6.892-15.394-14.971-15.394s-14.669 6.854-14.971 15.394c-1.651-2.065-4.186-3.394-7.029-3.394-4.962 0-9 4.038-9 9 0 4.746 2.091 9.211 5.737 12.25l.14.117-1.158 4.633h3.281v1c0 .551-.449 1-1 1-1.654 0-3 1.346-3 3s1.346 3 3 3h4c.551 0 1 .449 1 1s-.449 1-1 1c-1.654 0-3 1.346-3 3s1.346 3 3 3c.551 0 1 .449 1 1v1h2v-1c0-1.654-1.346-3-3-3-.551 0-1-.449-1-1s.449-1 1-1c1.654 0 3-1.346 3-3s-1.346-3-3-3h-4c-.551 0-1-.449-1-1s.449-1 1-1c1.654 0 3-1.346 3-3v-1h3.281l-1.158-4.634.14-.117c2.989-2.491 4.91-5.946 5.513-9.722 1.051 2.099 2.534 3.946 4.367 5.38-1.292.905-2.143 2.399-2.143 4.093 0 2.757 2.243 5 5 5 .594 0 1.171-.116 1.718-.317l-3.299 9.898 3-1-4.944 14.831 5.218-1.305 2.307 2.307 2-2 2 2 2.307-2.307 5.218 1.305-4.944-14.831 3 1-3.299-9.898c.547.201 1.124.317 1.718.317 2.757 0 5-2.243 5-5 0-1.694-.851-3.188-2.143-4.093 1.833-1.434 3.316-3.281 4.367-5.38.604 3.777 2.525 7.232 5.513 9.723l.14.117-1.158 4.633h3.281v1c0 .551-.449 1-1 1-1.654 0-3 1.346-3 3s1.346 3 3 3h4c.551 0 1 .449 1 1s-.449 1-1 1c-1.654 0-3 1.346-3 3s1.346 3 3 3c.551 0 1 .449 1 1v1h2v-1c0-1.654-1.346-3-3-3-.551 0-1-.449-1-1s.449-1 1-1c1.654 0 3-1.346 3-3s-1.346-3-3-3h-4c-.551 0-1-.449-1-1s.449-1 1-1c1.654 0 3-1.346 3-3v-1h3.281l-1.158-4.634.14-.117c3.646-3.038 5.737-7.503 5.737-12.249 0-4.962-4.038-9-9-9zm-45.719 24 .5-2h2.438l.5 2zm3.701-4.287-.344.287h-3.276l-.344-.287c-3.189-2.657-5.018-6.562-5.018-10.713 0-3.86 3.14-7 7-7s7 3.14 7 7c0 4.151-1.829 8.056-5.018 10.713zm11.018 1.287c0-1.654 1.346-3 3-3 1.046 0 1.994.55 2.534 1.41-.942.91-1.534 2.18-1.534 3.59 0 .271.038.532.08.791-.343.133-.706.209-1.08.209-1.654 0-3-1.346-3-3zm12 2c0 1.654-1.346 3-3 3s-3-1.346-3-3 1.346-3 3-3 3 1.346 3 3zm1.825 23.175-.854-3.418-1.94.485.863 3.451-.894.893-2-2-2 2-.877-.877 1.838-6.434-1.923-.55-1.841 6.445-1.672.418 3.66-10.981.541 1.081 2.274-2.274 2.274 2.274.541-1.081 3.66 10.981zm-2.331-14.398-.768 1.535-1.726-1.726-1.726 1.726-.768-1.535-1.925.642 1.738-5.213c.777.497 1.693.794 2.681.794s1.904-.297 2.681-.794l1.738 5.213zm3.506-7.777c-.374 0-.737-.076-1.08-.209.042-.259.08-.52.08-.791 0-1.41-.592-2.68-1.534-3.59.54-.86 1.488-1.41 2.534-1.41 1.654 0 3 1.346 3 3s-1.346 3-3 3zm.593-7.94c-.197-.024-.39-.06-.593-.06-1.74 0-3.317.914-4.219 2.343-.555-.213-1.152-.343-1.781-.343s-1.226.13-1.781.343c-.902-1.429-2.479-2.343-4.219-2.343-.203 0-.396.036-.593.06-3.957-2.515-6.407-7.101-6.407-12.06 0-7.72 5.832-14 13-14s13 6.28 13 14c0 4.959-2.45 9.545-6.407 12.06zm13.688 7.94.5-2h2.438l.5 2zm3.701-4.287-.344.287h-3.276l-.344-.287c-3.189-2.657-5.018-6.562-5.018-10.713 0-3.86 3.14-7 7-7s7 3.14 7 7c0 4.151-1.829 8.056-5.018 10.713zm-4.982-10.949c0 1.308.309 2.618.895 3.789l-1.789.895c-.724-1.448-1.106-3.067-1.106-4.684v-.764h2z" fill="url(#SVGID_1_)"/></svg>